#!OML:ASF E:\Mandelcareful walks\Project 1\Capture day 1\Session 1\Subject1.ASF
:FULLY-SPECIFIED
:DEGREES
224
root -16.9306 14.9154 2.42099 -223.864 83.0848 119.911
lowerback 22.1381 -1.602 -0.466612
upperback 6.28483 -1.83942 -2.02944
thorax -5.53668 -0.683082 -1.45759
lowerneck -26.576 8.56884 2.35844
upperneck 22.8564 14.5594 -10.6576
head 13.1415 5.24234 -1.65642
rclavicle -1.98785e-016 5.06901e-015
rhumerus -29.5822 7.53567 -81.9829
rradius 59.6115
rwrist -19.8425
rhand -15.8166 -26.5765
rfingers 7.12502
rthumb 10.3771 -56.3004
lclavicle -1.98785e-016 5.06901e-015
lhumerus -21.8339 -23.0111 79.2951
lradius 73.2118
lwrist 5.11387
lhand -26.3068 -18.7654
lfingers 7.12502
lthumb 0.249423 11.2142
rfemur -54.9237 -18.6247 11.897
rtibia 64.7585
rfoot -21.22 -9.6142
rtoes -6.40791
lfemur -46.9049 17.3719 -11.3355
ltibia 68.5918
lfoot -11.4625 6.58917
ltoes -21.3246
225
root -16.8639 14.9358 2.53944 -217.419 82.2673 126.139
lowerback 21.6793 -1.55361 0.0888726
upperback 6.48013 -1.64962 -2.26569
thorax -5.10892 -0.584305 -2.08512
lowerneck -25.9323 9.17299 3.2814
upperneck 22.24 15.2583 -11.5814
head 13.0026 5.56908 -2.01768
rclavicle 4.07509e-015 7.95139e-015
rhumerus -29.231 7.29184 -81.8148
rradius 59.6564
rwrist -19.6506
rhand -15.2664 -27.0398
rfingers 7.12502
rthumb 10.9078 -56.7365
lclavicle 4.07509e-015 7.95139e-015
lhumerus -21.7066 -23.6082 79.4404
lradius 73.2179
lwrist 4.32799
lhand -26.1245 -19.2623
lfingers 7.12502
lthumb 0.425483 10.717
rfemur -54.7182 -19.2055 12.2174
rtibia 64.9909
rfoot -21.8803 -10.0681
rtoes -5.65555
lfemur -48.0466 17.4923 -11.9816
ltibia 67.1119
lfoot -11.9417 5.87032
ltoes -23.3578
226
root -16.8053 14.9492 2.65134 -212.055 81.1756 131.235
lowerback 21.7576 -1.47153 0.245274
upperback 6.33003 -1.51996 -2.30034
thorax -5.31191 -0.524391 -2.24437
lowerneck -25.3319 10.0225 4.03493
upperneck 22.2382 16.4716 -12.3731
head 13.1584 6.09306 -2.1905
rclavicle -3.65764e-014 -2.06736e-014
rhumerus -29.5531 7.32108 -81.3735
rradius 59.8958
rwrist -19.6054
rhand -15.3192 -27.378
rfingers 7.12502
rthumb 10.8568 -57.0774
lclavicle -3.65764e-014 -2.06736e-014
lhumerus -22.1543 -24.1534 80.019
lradius 73.3617
lwrist 3.59845
lhand -25.531 -19.2404
lfingers 7.12502
lthumb 0.998747 10.737
rfemur -54.5787 -19.9633 12.4013
rtibia 65.199
rfoot -22.5411 -10.5404
rtoes -5.2866
lfemur -49.2018 17.2032 -12.7899
ltibia 65.1554
lfoot -12.4214 5.44188
ltoes -23.3974
227
root -16.695 14.9878 2.73125 -210.825 81.4273 132.958
lowerback 22.2372 -0.927817 0.712007
upperback 6.39994 -0.709148 -2.38797
thorax -5.45326 -0.126466 -2.81892
lowerneck -23.9968 11.1233 5.31492
upperneck 21.5721 17.9639 -13.7816
head 13.0894 6.78577 -2.62978
rclavicle 1.03368e-014 1.76918e-014
rhumerus -30.1236 7.21627 -80.9681
rradius 60.0388
rwrist -19.9462
rhand -16.3045 -26.4975
rfingers 7.12502
rthumb 9.90638 -56.2445
lclavicle 1.03368e-014 1.76918e-014
lhumerus -22.5902 -24.9736 80.5431
lradius 73.4334
lwrist 3.04668
lhand -25.0081 -19.4383
lfingers 7.12502
lthumb 1.50378 10.5361
rfemur -53.3902 -19.4322 12.8226
rtibia 65.1193
rfoot -23.2687 -10.9565
rtoes -5.24861
lfemur -48.6948 17.925 -12.7537
ltibia 62.7645
lfoot -13.472 5.38213
ltoes -22.6187
228
root -16.6587 14.9912 2.83424 -203.526 80.4122 139.779
lowerback 22.321 -0.849845 1.3716
upperback 6.12138 -0.48477 -2.36867
thorax -5.7922 -0.0346686 -3.2392
lowerneck -22.6813 12.4876 6.56705
upperneck 21.0712 19.8984 -15.1007
head 13.182 7.67864 -2.92129
rclavicle 1.92821e-014 1.59028e-015
rhumerus -30.5742 6.89417 -80.5674
rradius 60.111
rwrist -20.4361
rhand -16.9068 -25.603
rfingers 7.12502
rthumb 9.32526 -55.3767
lclavicle 1.92821e-014 1.59028e-015
lhumerus -22.8708 -25.8991 80.9289
lradius 73.4809
lwrist 3.0477
lhand -24.7023 -19.5367
lfingers 7.12502
lthumb 1.79905 10.4354
rfemur -53.6183 -20.0217 13.6264
rtibia 65.2285
rfoot -23.7213 -11.8256
rtoes -4.76416
lfemur -50.213 17.1954 -12.9688
ltibia 60.2829
lfoot -13.7403 5.79774
ltoes -22.9317
229
root -16.6151 14.9983 2.92297 -199.822 79.0745 143.083
lowerback 22.1099 -0.775632 1.81321
upperback 6.06836 -0.312022 -2.65157
thorax -5.73294 0.047994 -3.84579
lowerneck -20.8051 14.0094 8.41404
upperneck 19.9527 21.9648 -16.9287
head 13.1522 8.69611 -3.45783
rclavicle -8.34896e-015 -5.24792e-014
rhumerus -30.8974 6.30134 -80.2858
rradius 60.222
rwrist -20.9019
rhand -16.8609 -25.6339
rfingers 7.12502
rthumb 9.36959 -55.4057
lclavicle -8.34896e-015 -5.24792e-014
lhumerus -22.7316 -27.2006 80.9
lradius 73.5055
lwrist 3.58737
lhand -24.8414 -19.3082
lfingers 7.12502
lthumb 1.66479 10.665
rfemur -53.6967 -20.9446 13.8677
rtibia 65.3411
rfoot -24.2623 -12.3618
rtoes -4.125
lfemur -51.3732 16.1912 -13.5521
ltibia 57.6951
lfoot -13.8935 6.38975
ltoes -23.368
230
root -16.5278 15.0232 2.97217 -200.271 78.5816 142.77
lowerback 21.6609 -0.196198 1.83277
upperback 6.45432 0.460353 -2.93628
thorax -5.01695 0.456458 -4.35272
lowerneck -19.124 15.6335 9.79376
upperneck 18.6287 24.3813 -18.8702
head 13.1927 9.84577 -3.83561
rclavicle 1.07344e-014 6.36111e-015
rhumerus -31.1559 5.63036 -79.597
rradius 60.4501
rwrist -21.4435
rhand -17.0339 -26.2953
rfingers 7.12502
rthumb 9.20265 -56.0745
lclavicle 1.07344e-014 6.36111e-015
lhumerus -22.007 -28.8371 80.9744
lradius 73.1945
lwrist 3.9676
lhand -26.2722 -20.7151
lfingers 7.12502
lthumb 0.282887 9.26443
rfemur -53.0515 -21.3596 13.6375
rtibia 65.3693
rfoot -24.7519 -12.5517
rtoes -4.79286
lfemur -51.2327 15.8924 -14.0838
ltibia 55.1693
lfoot -14.1895 7.04185
ltoes -23.725
231
root -16.4768 15.0284 3.03282 -198.662 77.584 144.184
lowerback 21.6123 0.188023 2.1612
upperback 6.44597 1.01432 -3.31807
thorax -4.93646 0.734873 -5.09752
lowerneck -16.7729 17.0743 11.3475
upperneck 17.2286 26.4591 -20.5377
head 13.0796 10.9585 -4.23289
rclavicle 1.39149e-014 -5.56597e-015
rhumerus -31.9185 4.72048 -79.198
rradius 60.7421
rwrist -21.8745
rhand -17.4902 -26.752
rfingers 7.12502
rthumb 8.76234 -56.5501
lclavicle 1.39149e-014 -5.56597e-015
lhumerus -21.4287 -30.9328 80.817
lradius 72.8667
lwrist 4.45447
lhand -28.5946 -24.0559
lfingers 7.12502
lthumb -1.96019 5.91487
rfemur -52.9794 -22.1896 13.6871
rtibia 65.4521
rfoot -24.9861 -13.0369
rtoes -6.06531
lfemur -51.8653 15.0996 -14.5255
ltibia 52.8273
lfoot -13.662 7.69985
ltoes -24.0279
232
root -16.4136 15.0376 3.09394 -197.046 76.7056 145.815
lowerback 21.9617 0.621158 2.50639
upperback 6.32761 1.63359 -3.7507
thorax -5.15378 1.03602 -5.94735
lowerneck -14.6735 18.5896 12.8365
upperneck 16.142 28.6903 -21.864
head 13.1696 12.1348 -4.4141
rclavicle -3.53837e-014 -2.82274e-014
rhumerus -33.1168 3.86315 -79.0106
rradius 60.9962
rwrist -22.3872
rhand -18.1666 -26.8395
rfingers 7.12502
rthumb 8.1095 -56.6639
lclavicle -3.53837e-014 -2.82274e-014
lhumerus -20.8386 -33.2268 80.4409
lradius 72.629
lwrist 5.08365
lhand -24.4347 -16.9363
lfingers 7.12502
lthumb 2.05753 13.0335
rfemur -52.5069 -22.8285 13.7657
rtibia 65.5362
rfoot -25.64 -13.2643
rtoes -5.8676
lfemur -52.1819 14.4583 -14.6739
ltibia 50.677
lfoot -12.8323 8.24828
ltoes -23.8602
233
root -16.3422 15.0363 3.15137 -192.412 76.3085 150.793
lowerback 22.3186 1.11893 3.5466
upperback 6.28775 2.50803 -3.90038
thorax -5.21752 1.46156 -6.96081
lowerneck -11.4875 19.5909 14.8578
upperneck 14.2615 30.2114 -23.837
head 12.9077 13.1429 -5.13703
rclavicle 7.27552e-014 -7.07673e-014
rhumerus -34.3265 3.1235 -78.8003
rradius 61.0849
rwrist -22.7468
rhand -18.8553 -27.3249
rfingers 7.12502
rthumb 7.44486 -57.1739
lclavicle 7.27552e-014 -7.07673e-014
lhumerus -19.8609 -35.4727 79.9332
lradius 72.2529
lwrist 5.36915
lhand -23.7562 -15.4041
lfingers 7.12502
lthumb 2.71283 14.5584
rfemur -51.7091 -22.9944 14.8304
rtibia 65.6943
rfoot -26.6991 -13.4331
rtoes -4.28589
lfemur -52.3893 14.2167 -13.6672
ltibia 48.8973
lfoot -11.8389 9.03155
ltoes -24.8341
234
root -16.2828 15.0254 3.1743 -193.531 75.1674 149.336
lowerback 22.1922 1.69307 3.15867
upperback 6.20595 3.14734 -4.42777
thorax -5.13785 1.78605 -7.47719
lowerneck -9.40752 20.5592 16.0692
upperneck 13.0947 31.7715 -25.0685
head 12.9046 14.0569 -5.39143
rclavicle -4.92986e-014 6.36111e-014
rhumerus -35.5394 2.55376 -78.4708
rradius 61.1795
rwrist -23.105
rhand -19.5292 -28.0103
rfingers 7.12502
rthumb 6.79435 -57.8813
lclavicle -4.92986e-014 6.36111e-014
lhumerus -18.6438 -37.6393 79.5399
lradius 71.824
lwrist 5.42593
lhand -23.0796 -14.242
lfingers 7.12502
lthumb 3.36625 15.7112
rfemur -51.7904 -24.4115 14.205
rtibia 66.0738
rfoot -27.1114 -12.8919
rtoes -2.95972
lfemur -53.165 13.3083 -14.7425
ltibia 47.3696
lfoot -10.7029 10.314
ltoes -26.3243
235
root -16.2148 14.9908 3.20181 -191.235 74.6243 151.613
lowerback 22.1221 2.4937 3.63716
upperback 6.13269 4.27983 -4.73562
thorax -4.94677 2.35165 -8.37438
lowerneck -7.92017 21.315 17.1203
upperneck 12.5491 32.9628 -25.5853
head 13.0028 14.7513 -5.43743
rclavicle 6.36111e-015 -1.59028e-014
rhumerus -37.2103 1.52661 -78.2608
rradius 61.3642
rwrist -23.4626
rhand -20.3871 -28.385
rfingers 7.12502
rthumb 5.96613 -58.281
lclavicle 6.36111e-015 -1.59028e-014
lhumerus -17.1055 -40.4775 78.9449
lradius 71.4444
lwrist 5.33478
lhand -22.5581 -13.1519
lfingers 7.12502
lthumb 3.8698 16.7927
rfemur -51.6594 -24.9946 14.6892
rtibia 66.5029
rfoot -27.7334 -12.7025
rtoes -1.90027
lfemur -53.6578 12.8328 -14.3397
ltibia 46.1304
lfoot -9.12524 11.1287
ltoes -25.7441
236
root -16.1403 14.9567 3.22124 -188.995 73.8705 153.951
lowerback 21.9506 3.09895 3.92111
upperback 6.23922 5.14189 -4.88831
thorax -4.55524 2.80705 -8.8882
lowerneck -6.73235 21.9577 17.2936
upperneck 11.7732 33.9003 -25.8589
head 12.7927 15.3125 -5.35773
rclavicle -8.26944e-014 -7.95139e-015
rhumerus -38.4044 1.35526 -78.0071
rradius 61.2467
rwrist -23.3207
rhand -21.3043 -28.0054
rfingers 7.12502
rthumb 5.08057 -57.9245
lclavicle -8.26944e-014 -7.95139e-015
lhumerus -15.0917 -42.6144 78.1453
lradius 71.0395
lwrist 5.08021
lhand -21.7271 -12.5422
lfingers 7.12502
lthumb 4.67232 17.3863
rfemur -51.2924 -25.7754 15.0938
rtibia 66.9092
rfoot -28.3495 -12.7583
rtoes -1.81917
lfemur -53.8711 12.17 -13.8422
ltibia 45.02
lfoot -7.54701 11.6834
ltoes -24.0224
